<svg width="80" height="80" viewBox="0 0 80 80" fill="none" xmlns="http://www.w3.org/2000/svg">
  <!-- Definitions -->
  <defs>
    <linearGradient id="logoGradient" x1="0%" y1="0%" x2="100%" y2="100%">
      <stop offset="0%" style="stop-color:#ff6b35;stop-opacity:1" />
      <stop offset="100%" style="stop-color:#00d4aa;stop-opacity:1" />
    </linearGradient>
    <linearGradient id="gearGradient" x1="0%" y1="0%" x2="100%" y2="100%">
      <stop offset="0%" style="stop-color:#1a1a2e;stop-opacity:1" />
      <stop offset="100%" style="stop-color:#0f3460;stop-opacity:1" />
    </linearGradient>
    <filter id="shadow" x="-20%" y="-20%" width="140%" height="140%">
      <feDropShadow dx="2" dy="4" stdDeviation="3" flood-color="rgba(26, 26, 46, 0.3)"/>
    </filter>
    <filter id="glow" x="-50%" y="-50%" width="200%" height="200%">
      <feGaussianBlur stdDeviation="2" result="coloredBlur"/>
      <feMerge> 
        <feMergeNode in="coloredBlur"/>
        <feMergeNode in="SourceGraphic"/> 
      </feMerge>
    </filter>
  </defs>
  
  <!-- Background Circle -->
  <circle cx="40" cy="40" r="38" fill="url(#logoGradient)" filter="url(#shadow)"/>
  
  <!-- Main Gear -->
  <g transform="translate(40, 40)">
    <!-- Gear Teeth -->
    <g fill="url(#gearGradient)" filter="url(#glow)">
      <!-- Top teeth -->
      <rect x="-2" y="-28" width="4" height="6" rx="1"/>
      <rect x="-2" y="22" width="4" height="6" rx="1"/>
      <rect x="-28" y="-2" width="6" height="4" rx="1"/>
      <rect x="22" y="-2" width="6" height="4" rx="1"/>
      
      <!-- Diagonal teeth -->
      <rect x="-20" y="-20" width="4" height="6" rx="1" transform="rotate(45)"/>
      <rect x="16" y="-20" width="4" height="6" rx="1" transform="rotate(45)"/>
      <rect x="-20" y="16" width="4" height="6" rx="1" transform="rotate(45)"/>
      <rect x="16" y="16" width="4" height="6" rx="1" transform="rotate(45)"/>
    </g>
    
    <!-- Main Gear Body -->
    <circle cx="0" cy="0" r="20" fill="url(#gearGradient)" stroke="#ffffff" stroke-width="2" filter="url(#glow)"/>
    
    <!-- Inner Circle -->
    <circle cx="0" cy="0" r="12" fill="#ffffff" opacity="0.9"/>
    
    <!-- Center Hole -->
    <circle cx="0" cy="0" r="6" fill="url(#gearGradient)"/>
    
    <!-- SMK Text -->
    <text x="0" y="2" text-anchor="middle" font-family="Orbitron, monospace" font-size="8" font-weight="bold" fill="#ffffff">
      SMK
    </text>
  </g>
  
  <!-- Small Decorative Gears -->
  <g transform="translate(20, 20)" opacity="0.7">
    <circle cx="0" cy="0" r="6" fill="#ffffff" opacity="0.8"/>
    <circle cx="0" cy="0" r="4" fill="url(#gearGradient)"/>
    <rect x="-1" y="-8" width="2" height="3" rx="0.5" fill="url(#gearGradient)"/>
    <rect x="-1" y="5" width="2" height="3" rx="0.5" fill="url(#gearGradient)"/>
    <rect x="-8" y="-1" width="3" height="2" rx="0.5" fill="url(#gearGradient)"/>
    <rect x="5" y="-1" width="3" height="2" rx="0.5" fill="url(#gearGradient)"/>
  </g>
  
  <g transform="translate(60, 60)" opacity="0.7">
    <circle cx="0" cy="0" r="6" fill="#ffffff" opacity="0.8"/>
    <circle cx="0" cy="0" r="4" fill="url(#gearGradient)"/>
    <rect x="-1" y="-8" width="2" height="3" rx="0.5" fill="url(#gearGradient)"/>
    <rect x="-1" y="5" width="2" height="3" rx="0.5" fill="url(#gearGradient)"/>
    <rect x="-8" y="-1" width="3" height="2" rx="0.5" fill="url(#gearGradient)"/>
    <rect x="5" y="-1" width="3" height="2" rx="0.5" fill="url(#gearGradient)"/>
  </g>
  
  <!-- Circuit Lines -->
  <g stroke="#ffffff" stroke-width="1" fill="none" opacity="0.6">
    <path d="M15 25 L25 15 M55 25 L65 15 M15 55 L25 65 M55 55 L65 65"/>
    <circle cx="15" cy="25" r="1.5" fill="#ffffff"/>
    <circle cx="65" cy="25" r="1.5" fill="#ffffff"/>
    <circle cx="15" cy="55" r="1.5" fill="#ffffff"/>
    <circle cx="65" cy="55" r="1.5" fill="#ffffff"/>
  </g>
  
  <!-- Animation -->
  <animateTransform
    attributeName="transform"
    attributeType="XML"
    type="rotate"
    from="0 40 40"
    to="360 40 40"
    dur="20s"
    repeatCount="indefinite"/>
</svg>