<svg width="100" height="100" viewBox="0 0 100 100" fill="none" xmlns="http://www.w3.org/2000/svg">
  <!-- Definitions -->
  <defs>
    <linearGradient id="mmGradient1" x1="0%" y1="0%" x2="100%" y2="100%">
      <stop offset="0%" style="stop-color:#ff6b35;stop-opacity:1" />
      <stop offset="50%" style="stop-color:#f7931e;stop-opacity:1" />
      <stop offset="100%" style="stop-color:#1a1a2e;stop-opacity:1" />
    </linearGradient>
    <linearGradient id="mmGradient2" x1="0%" y1="0%" x2="100%" y2="100%">
      <stop offset="0%" style="stop-color:#e91e63;stop-opacity:1" />
      <stop offset="100%" style="stop-color:#9c27b0;stop-opacity:1" />
    </linearGradient>
    <linearGradient id="mmGradient3" x1="0%" y1="0%" x2="100%" y2="100%">
      <stop offset="0%" style="stop-color:#00d4aa;stop-opacity:1" />
      <stop offset="100%" style="stop-color:#2196f3;stop-opacity:1" />
    </linearGradient>
    <filter id="mmShadow" x="-20%" y="-20%" width="140%" height="140%">
      <feDropShadow dx="2" dy="4" stdDeviation="3" flood-color="rgba(26, 26, 46, 0.3)"/>
    </filter>
    <filter id="mmGlow" x="-50%" y="-50%" width="200%" height="200%">
      <feGaussianBlur stdDeviation="2" result="coloredBlur"/>
      <feMerge> 
        <feMergeNode in="coloredBlur"/>
        <feMergeNode in="SourceGraphic"/> 
      </feMerge>
    </filter>
  </defs>
  
  <!-- Background Circle -->
  <circle cx="50" cy="50" r="48" fill="url(#mmGradient1)" filter="url(#mmShadow)"/>
  
  <!-- Main Camera/Video Icon -->
  <g transform="translate(50, 45)">
    <!-- Camera Body -->
    <rect x="-15" y="-8" width="30" height="16" rx="3" fill="#1a1a2e" filter="url(#mmShadow)"/>
    
    <!-- Camera Lens -->
    <circle cx="-5" cy="0" r="8" fill="url(#mmGradient2)" filter="url(#mmShadow)"/>
    <circle cx="-5" cy="0" r="5" fill="#000000"/>
    <circle cx="-5" cy="0" r="3" fill="url(#mmGradient3)" opacity="0.8"/>
    
    <!-- Lens Reflection -->
    <circle cx="-7" cy="-2" r="1.5" fill="#ffffff" opacity="0.6"/>
    
    <!-- Camera Details -->
    <rect x="8" y="-6" width="4" height="3" rx="1" fill="url(#mmGradient2)"/>
    <rect x="8" y="-2" width="4" height="3" rx="1" fill="url(#mmGradient3)"/>
    <rect x="8" y="2" width="4" height="3" rx="1" fill="#ff6b35"/>
    
    <!-- Recording Light -->
    <circle cx="12" cy="-6" r="1" fill="#ff0000">
      <animate attributeName="opacity" values="1;0.3;1" dur="1s" repeatCount="indefinite"/>
    </circle>
  </g>
  
  <!-- Film Strip -->
  <g transform="translate(20, 25)" opacity="0.8">
    <rect x="0" y="0" width="20" height="8" rx="1" fill="url(#mmGradient2)" filter="url(#mmShadow)"/>
    
    <!-- Film Holes -->
    <g fill="#1a1a2e">
      <rect x="1" y="1" width="1.5" height="1.5" rx="0.5"/>
      <rect x="1" y="5.5" width="1.5" height="1.5" rx="0.5"/>
      <rect x="4" y="1" width="1.5" height="1.5" rx="0.5"/>
      <rect x="4" y="5.5" width="1.5" height="1.5" rx="0.5"/>
      <rect x="7" y="1" width="1.5" height="1.5" rx="0.5"/>
      <rect x="7" y="5.5" width="1.5" height="1.5" rx="0.5"/>
      <rect x="10" y="1" width="1.5" height="1.5" rx="0.5"/>
      <rect x="10" y="5.5" width="1.5" height="1.5" rx="0.5"/>
      <rect x="13" y="1" width="1.5" height="1.5" rx="0.5"/>
      <rect x="13" y="5.5" width="1.5" height="1.5" rx="0.5"/>
      <rect x="16" y="1" width="1.5" height="1.5" rx="0.5"/>
      <rect x="16" y="5.5" width="1.5" height="1.5" rx="0.5"/>
    </g>
    
    <!-- Film Frames -->
    <g fill="#ffffff" opacity="0.3">
      <rect x="3" y="2.5" width="2" height="3"/>
      <rect x="6" y="2.5" width="2" height="3"/>
      <rect x="9" y="2.5" width="2" height="3"/>
      <rect x="12" y="2.5" width="2" height="3"/>
      <rect x="15" y="2.5" width="2" height="3"/>
    </g>
  </g>
  
  <!-- Audio Waveform -->
  <g transform="translate(15, 65)" opacity="0.7">
    <g fill="url(#mmGradient3)">
      <rect x="0" y="5" width="2" height="4">
        <animate attributeName="height" values="4;12;4" dur="1.2s" repeatCount="indefinite"/>
        <animate attributeName="y" values="5;1;5" dur="1.2s" repeatCount="indefinite"/>
      </rect>
      <rect x="3" y="3" width="2" height="8">
        <animate attributeName="height" values="8;16;8" dur="1s" repeatCount="indefinite"/>
        <animate attributeName="y" values="3;-1;3" dur="1s" repeatCount="indefinite"/>
      </rect>
      <rect x="6" y="6" width="2" height="2">
        <animate attributeName="height" values="2;10;2" dur="1.5s" repeatCount="indefinite"/>
        <animate attributeName="y" values="6;2;6" dur="1.5s" repeatCount="indefinite"/>
      </rect>
      <rect x="9" y="4" width="2" height="6">
        <animate attributeName="height" values="6;14;6" dur="0.8s" repeatCount="indefinite"/>
        <animate attributeName="y" values="4;0;4" dur="0.8s" repeatCount="indefinite"/>
      </rect>
      <rect x="12" y="7" width="2" height="1">
        <animate attributeName="height" values="1;8;1" dur="1.3s" repeatCount="indefinite"/>
        <animate attributeName="y" values="7;3;7" dur="1.3s" repeatCount="indefinite"/>
      </rect>
      <rect x="15" y="5" width="2" height="4">
        <animate attributeName="height" values="4;12;4" dur="1.1s" repeatCount="indefinite"/>
        <animate attributeName="y" values="5;1;5" dur="1.1s" repeatCount="indefinite"/>
      </rect>
      <rect x="18" y="6" width="2" height="2">
        <animate attributeName="height" values="2;10;2" dur="0.9s" repeatCount="indefinite"/>
        <animate attributeName="y" values="6;2;6" dur="0.9s" repeatCount="indefinite"/>
      </rect>
    </g>
  </g>
  
  <!-- Color Palette -->
  <g transform="translate(70, 20)" opacity="0.8">
    <!-- Palette Base -->
    <ellipse cx="0" cy="5" rx="8" ry="6" fill="#ffffff" filter="url(#mmShadow)"/>
    
    <!-- Color Dots -->
    <circle cx="-4" cy="2" r="2" fill="#ff0000"/>
    <circle cx="0" cy="1" r="2" fill="#00ff00"/>
    <circle cx="4" cy="2" r="2" fill="#0000ff"/>
    <circle cx="-2" cy="6" r="2" fill="#ffff00"/>
    <circle cx="2" cy="6" r="2" fill="#ff00ff"/>
    
    <!-- Brush -->
    <g transform="translate(-6, -2)">
      <rect x="0" y="0" width="1" height="8" fill="#8b4513"/>
      <ellipse cx="0.5" cy="-1" rx="1.5" ry="2" fill="url(#mmGradient2)"/>
    </g>
  </g>
  
  <!-- Play Button -->
  <g transform="translate(75, 65)" opacity="0.9">
    <circle cx="0" cy="0" r="8" fill="url(#mmGradient3)" filter="url(#mmShadow)"/>
    <polygon points="-3,-4 -3,4 5,0" fill="#ffffff"/>
    
    <!-- Pulse Animation -->
    <circle cx="0" cy="0" r="8" fill="none" stroke="url(#mmGradient3)" stroke-width="1" opacity="0.5">
      <animate attributeName="r" values="8;12;8" dur="2s" repeatCount="indefinite"/>
      <animate attributeName="opacity" values="0.5;0;0.5" dur="2s" repeatCount="indefinite"/>
    </circle>
  </g>
  
  <!-- Floating Media Elements -->
  
  <!-- Music Note -->
  <g transform="translate(25, 50)" opacity="0.6">
    <circle cx="0" cy="8" r="2" fill="url(#mmGradient2)"/>
    <rect x="2" y="0" width="1" height="8" fill="url(#mmGradient2)"/>
    <path d="M3 0 Q6 -2 8 0 Q6 2 3 4" fill="url(#mmGradient2)"/>
    
    <animateTransform attributeName="transform" type="translate" values="25,50; 25,45; 25,50" dur="3s" repeatCount="indefinite"/>
  </g>
  
  <!-- Image Icon -->
  <g transform="translate(80, 40)" opacity="0.6">
    <rect x="-4" y="-3" width="8" height="6" rx="1" fill="url(#mmGradient3)" stroke="#ffffff" stroke-width="0.5"/>
    <circle cx="-1" cy="-1" r="1" fill="#ffffff"/>
    <polygon points="-3,1 0,-1 3,1 3,2 -3,2" fill="#ffffff" opacity="0.7"/>
    
    <animateTransform attributeName="transform" type="translate" values="80,40; 80,35; 80,40" dur="2.5s" repeatCount="indefinite"/>
  </g>
  
  <!-- Video Icon -->
  <g transform="translate(20, 75)" opacity="0.6">
    <rect x="-3" y="-2" width="6" height="4" rx="0.5" fill="url(#mmGradient1)"/>
    <polygon points="3,-1 6,0 3,1" fill="url(#mmGradient2)"/>
    
    <animateTransform attributeName="transform" type="translate" values="20,75; 20,70; 20,75" dur="3.5s" repeatCount="indefinite"/>
  </g>
  
  <!-- Digital Effects -->
  <g opacity="0.4">
    <!-- Sparkles -->
    <g fill="#ffffff">
      <circle cx="30" cy="15" r="0.5">
        <animate attributeName="opacity" values="0;1;0" dur="2s" repeatCount="indefinite"/>
      </circle>
      <circle cx="70" cy="25" r="0.5">
        <animate attributeName="opacity" values="1;0;1" dur="1.5s" repeatCount="indefinite"/>
      </circle>
      <circle cx="85" cy="55" r="0.5">
        <animate attributeName="opacity" values="0;1;0" dur="2.5s" repeatCount="indefinite"/>
      </circle>
      <circle cx="15" cy="85" r="0.5">
        <animate attributeName="opacity" values="1;0;1" dur="1.8s" repeatCount="indefinite"/>
      </circle>
    </g>
    
    <!-- Plus Signs -->
    <g stroke="#ffffff" stroke-width="1" fill="none">
      <g transform="translate(35, 80)">
        <line x1="-2" y1="0" x2="2" y2="0"/>
        <line x1="0" y1="-2" x2="0" y2="2"/>
        <animateTransform attributeName="transform" type="rotate" values="0 35 80; 360 35 80" dur="4s" repeatCount="indefinite"/>
      </g>
      <g transform="translate(85, 15)">
        <line x1="-2" y1="0" x2="2" y2="0"/>
        <line x1="0" y1="-2" x2="0" y2="2"/>
        <animateTransform attributeName="transform" type="rotate" values="360 85 15; 0 85 15" dur="3s" repeatCount="indefinite"/>
      </g>
    </g>
  </g>
  
  <!-- Main Rotation Animation -->
  <animateTransform attributeName="transform" type="rotate" values="0 50 50; 360 50 50" dur="20s" repeatCount="indefinite"/>
</svg>