<svg width="100" height="100" viewBox="0 0 100 100" fill="none" xmlns="http://www.w3.org/2000/svg">
  <!-- Definitions -->
  <defs>
    <linearGradient id="studioGradient1" x1="0%" y1="0%" x2="100%" y2="100%">
      <stop offset="0%" style="stop-color:#e91e63;stop-opacity:1" />
      <stop offset="50%" style="stop-color:#9c27b0;stop-opacity:1" />
      <stop offset="100%" style="stop-color:#1a1a2e;stop-opacity:1" />
    </linearGradient>
    <linearGradient id="studioGradient2" x1="0%" y1="0%" x2="100%" y2="100%">
      <stop offset="0%" style="stop-color:#ff6b35;stop-opacity:1" />
      <stop offset="100%" style="stop-color:#f7931e;stop-opacity:1" />
    </linearGradient>
    <linearGradient id="studioGradient3" x1="0%" y1="0%" x2="100%" y2="100%">
      <stop offset="0%" style="stop-color:#00d4aa;stop-opacity:1" />
      <stop offset="100%" style="stop-color:#2196f3;stop-opacity:1" />
    </linearGradient>
    <filter id="studioShadow" x="-20%" y="-20%" width="140%" height="140%">
      <feDropShadow dx="2" dy="4" stdDeviation="3" flood-color="rgba(26, 26, 46, 0.3)"/>
    </filter>
    <filter id="studioGlow" x="-50%" y="-50%" width="200%" height="200%">
      <feGaussianBlur stdDeviation="2" result="coloredBlur"/>
      <feMerge> 
        <feMergeNode in="coloredBlur"/>
        <feMergeNode in="SourceGraphic"/> 
      </feMerge>
    </filter>
  </defs>
  
  <!-- Background Circle -->
  <circle cx="50" cy="50" r="48" fill="url(#studioGradient1)" filter="url(#studioShadow)"/>
  
  <!-- Professional Camera -->
  <g transform="translate(50, 40)">
    <!-- Camera Body -->
    <rect x="-12" y="-8" width="24" height="16" rx="2" fill="#1a1a2e" filter="url(#studioShadow)"/>
    
    <!-- Camera Lens -->
    <circle cx="-3" cy="0" r="10" fill="url(#studioGradient2)" filter="url(#studioShadow)"/>
    <circle cx="-3" cy="0" r="7" fill="#000000"/>
    <circle cx="-3" cy="0" r="5" fill="url(#studioGradient3)" opacity="0.8"/>
    <circle cx="-3" cy="0" r="3" fill="#1a1a2e"/>
    
    <!-- Lens Reflection -->
    <circle cx="-5" cy="-2" r="1.5" fill="#ffffff" opacity="0.6"/>
    <circle cx="-1" cy="1" r="0.8" fill="#ffffff" opacity="0.4"/>
    
    <!-- Camera Controls -->
    <rect x="8" y="-6" width="3" height="2" rx="0.5" fill="url(#studioGradient2)"/>
    <rect x="8" y="-3" width="3" height="2" rx="0.5" fill="url(#studioGradient3)"/>
    <rect x="8" y="0" width="3" height="2" rx="0.5" fill="#ff6b35"/>
    <rect x="8" y="3" width="3" height="2" rx="0.5" fill="#00d4aa"/>
    
    <!-- Recording Indicator -->
    <circle cx="10" cy="-7" r="1.5" fill="#ff0000">
      <animate attributeName="opacity" values="1;0.3;1" dur="1s" repeatCount="indefinite"/>
    </circle>
    
    <!-- Viewfinder -->
    <rect x="12" y="-2" width="4" height="4" rx="0.5" fill="#000000" filter="url(#studioShadow)"/>
    <rect x="13" y="-1" width="2" height="2" rx="0.2" fill="url(#studioGradient3)" opacity="0.7"/>
  </g>
  
  <!-- Tripod -->
  <g transform="translate(50, 70)">
    <!-- Tripod Legs -->
    <g stroke="#666666" stroke-width="2" fill="none">
      <line x1="0" y1="0" x2="-8" y2="12"/>
      <line x1="0" y1="0" x2="8" y2="12"/>
      <line x1="0" y1="0" x2="0" y2="15"/>
    </g>
    
    <!-- Tripod Feet -->
    <circle cx="-8" cy="12" r="1" fill="#333333"/>
    <circle cx="8" cy="12" r="1" fill="#333333"/>
    <circle cx="0" cy="15" r="1" fill="#333333"/>
    
    <!-- Tripod Head -->
    <circle cx="0" cy="0" r="2" fill="#1a1a2e" filter="url(#studioShadow)"/>
    <rect x="-1" y="-3" width="2" height="3" fill="#333333"/>
  </g>
  
  <!-- Studio Lighting -->
  
  <!-- Key Light (Left) -->
  <g transform="translate(20, 25)">
    <!-- Light Stand -->
    <rect x="-0.5" y="5" width="1" height="15" fill="#666666"/>
    <circle cx="0" cy="20" r="2" fill="#333333"/>
    
    <!-- Light Head -->
    <ellipse cx="0" cy="0" rx="6" ry="4" fill="#1a1a2e" filter="url(#studioShadow)"/>
    <ellipse cx="0" cy="0" rx="4" ry="2.5" fill="#333333"/>
    
    <!-- Light Beam -->
    <g opacity="0.6">
      <path d="M-4 2 L-15 25 L15 25 L4 2 Z" fill="url(#studioGradient2)" opacity="0.3"/>
      <circle cx="0" cy="0" r="2" fill="#ffffff">
        <animate attributeName="opacity" values="0.8;1;0.8" dur="2s" repeatCount="indefinite"/>
      </circle>
    </g>
    
    <!-- Light Control -->
    <rect x="-1" y="-6" width="2" height="3" rx="0.5" fill="url(#studioGradient3)"/>
  </g>
  
  <!-- Fill Light (Right) -->
  <g transform="translate(80, 30)">
    <!-- Light Stand -->
    <rect x="-0.5" y="3" width="1" height="12" fill="#666666"/>
    <circle cx="0" cy="15" r="1.5" fill="#333333"/>
    
    <!-- Softbox -->
    <rect x="-5" y="-3" width="10" height="6" rx="1" fill="#ffffff" filter="url(#studioShadow)"/>
    <rect x="-4" y="-2" width="8" height="4" rx="0.5" fill="#f0f0f0"/>
    
    <!-- Soft Light Beam -->
    <g opacity="0.4">
      <path d="M-5 3 L-20 20 L20 20 L5 3 Z" fill="url(#studioGradient3)" opacity="0.2"/>
    </g>
  </g>
  
  <!-- Audio Equipment -->
  
  <!-- Boom Microphone -->
  <g transform="translate(25, 15)">
    <!-- Boom Pole -->
    <rect x="0" y="0" width="1" height="20" fill="#666666" transform="rotate(30)"/>
    
    <!-- Microphone -->
    <g transform="translate(10, -5)">
      <ellipse cx="0" cy="0" rx="2" ry="4" fill="#1a1a2e" filter="url(#studioShadow)"/>
      <ellipse cx="0" cy="0" rx="1.5" ry="3" fill="#333333"/>
      
      <!-- Windscreen -->
      <ellipse cx="0" cy="0" rx="2.5" ry="4.5" fill="none" stroke="#666666" stroke-width="0.5" opacity="0.7"/>
      
      <!-- Audio Signal -->
      <g opacity="0.6">
        <circle cx="0" cy="0" r="3" fill="none" stroke="url(#studioGradient3)" stroke-width="0.5">
          <animate attributeName="r" values="3;6;3" dur="1.5s" repeatCount="indefinite"/>
          <animate attributeName="opacity" values="0.6;0;0.6" dur="1.5s" repeatCount="indefinite"/>
        </circle>
      </g>
    </g>
  </g>
  
  <!-- Audio Mixer -->
  <g transform="translate(75, 70)">
    <rect x="-8" y="-4" width="16" height="8" rx="1" fill="#1a1a2e" filter="url(#studioShadow)"/>
    <rect x="-7" y="-3" width="14" height="6" rx="0.5" fill="#333333"/>
    
    <!-- Faders -->
    <g fill="#666666">
      <rect x="-6" y="-2" width="1" height="4" rx="0.2"/>
      <rect x="-4" y="-2" width="1" height="4" rx="0.2"/>
      <rect x="-2" y="-2" width="1" height="4" rx="0.2"/>
      <rect x="0" y="-2" width="1" height="4" rx="0.2"/>
      <rect x="2" y="-2" width="1" height="4" rx="0.2"/>
      <rect x="4" y="-2" width="1" height="4" rx="0.2"/>
    </g>
    
    <!-- Fader Knobs -->
    <g fill="url(#studioGradient2)">
      <rect x="-6.5" y="-1" width="2" height="1" rx="0.5">
        <animate attributeName="y" values="-1;1;-1" dur="3s" repeatCount="indefinite"/>
      </rect>
      <rect x="-4.5" y="0" width="2" height="1" rx="0.5">
        <animate attributeName="y" values="0;-2;0" dur="2.5s" repeatCount="indefinite"/>
      </rect>
      <rect x="-2.5" y="-0.5" width="2" height="1" rx="0.5">
        <animate attributeName="y" values="-0.5;1.5;-0.5" dur="2s" repeatCount="indefinite"/>
      </rect>
      <rect x="-0.5" y="0.5" width="2" height="1" rx="0.5">
        <animate attributeName="y" values="0.5;-1.5;0.5" dur="2.8s" repeatCount="indefinite"/>
      </rect>
    </g>
    
    <!-- Level Meters -->
    <g>
      <rect x="5" y="-2" width="0.5" height="4" fill="#00ff00" opacity="0.8">
        <animate attributeName="height" values="4;1;4" dur="1s" repeatCount="indefinite"/>
        <animate attributeName="y" values="-2;1;-2" dur="1s" repeatCount="indefinite"/>
      </rect>
      <rect x="6" y="-2" width="0.5" height="4" fill="#ffff00" opacity="0.8">
        <animate attributeName="height" values="4;2;4" dur="1.2s" repeatCount="indefinite"/>
        <animate attributeName="y" values="-2;0;-2" dur="1.2s" repeatCount="indefinite"/>
      </rect>
    </g>
  </g>
  
  <!-- Green Screen -->
  <g transform="translate(15, 60)" opacity="0.7">
    <rect x="0" y="0" width="20" height="25" rx="1" fill="#00ff00" filter="url(#studioShadow)"/>
    <rect x="1" y="1" width="18" height="23" rx="0.5" fill="#00cc00"/>
    
    <!-- Green Screen Stand -->
    <rect x="9" y="25" width="2" height="8" fill="#666666"/>
    <ellipse cx="10" cy="33" rx="4" ry="1" fill="#333333"/>
  </g>
  
  <!-- Monitor/Display -->
  <g transform="translate(85, 15)">
    <rect x="-6" y="-4" width="12" height="8" rx="1" fill="#1a1a2e" filter="url(#studioShadow)"/>
    <rect x="-5" y="-3" width="10" height="6" rx="0.5" fill="#000000"/>
    <rect x="-4.5" y="-2.5" width="9" height="5" rx="0.3" fill="url(#studioGradient1)" opacity="0.8"/>
    
    <!-- Screen Content (Video Preview) -->
    <g opacity="0.9">
      <rect x="-4" y="-2" width="3" height="2" fill="#ffffff" opacity="0.7"/>
      <rect x="-0.5" y="-2" width="3" height="2" fill="#ffffff" opacity="0.5"/>
      <rect x="3" y="-2" width="1" height="2" fill="#ffffff" opacity="0.8"/>
      
      <!-- Play Button -->
      <polygon points="-2,0 0,-1 0,1" fill="#ffffff" opacity="0.9"/>
    </g>
    
    <!-- Monitor Stand -->
    <rect x="-1" y="4" width="2" height="3" fill="#1a1a2e"/>
    <rect x="-3" y="7" width="6" height="1" rx="0.5" fill="#1a1a2e"/>
  </g>
  
  <!-- Floating Creative Elements -->
  
  <!-- Film Reel -->
  <g transform="translate(15, 15)" opacity="0.6">
    <circle cx="0" cy="0" r="4" fill="url(#studioGradient2)" filter="url(#studioShadow)"/>
    <circle cx="0" cy="0" r="2" fill="#1a1a2e"/>
    <circle cx="0" cy="0" r="1" fill="#333333"/>
    
    <!-- Film holes -->
    <g fill="#1a1a2e">
      <circle cx="0" cy="-3" r="0.3"/>
      <circle cx="2.1" cy="-2.1" r="0.3"/>
      <circle cx="2.1" cy="2.1" r="0.3"/>
      <circle cx="0" cy="3" r="0.3"/>
      <circle cx="-2.1" cy="2.1" r="0.3"/>
      <circle cx="-2.1" cy="-2.1" r="0.3"/>
    </g>
    
    <animateTransform attributeName="transform" type="rotate" values="0 15 15; 360 15 15" dur="8s" repeatCount="indefinite"/>
  </g>
  
  <!-- Clapperboard -->
  <g transform="translate(85, 85)" opacity="0.7">
    <rect x="-4" y="-2" width="8" height="4" rx="0.5" fill="#1a1a2e" filter="url(#studioShadow)"/>
    <rect x="-3.5" y="-1.5" width="7" height="3" rx="0.3" fill="#ffffff"/>
    
    <!-- Clapper stripes -->
    <g fill="#000000">
      <rect x="-3" y="-2.5" width="1" height="1" transform="skewX(-15)"/>
      <rect x="-1" y="-2.5" width="1" height="1" transform="skewX(-15)"/>
      <rect x="1" y="-2.5" width="1" height="1" transform="skewX(-15)"/>
      <rect x="3" y="-2.5" width="1" height="1" transform="skewX(-15)"/>
    </g>
    
    <!-- Scene info -->
    <g fill="#000000" font-size="2" font-family="monospace">
      <text x="0" y="0" text-anchor="middle">SC 01</text>
    </g>
  </g>
  
  <!-- Creative Sparkles -->
  <g opacity="0.5">
    <g fill="#ffffff">
      <circle cx="30" cy="10" r="0.5">
        <animate attributeName="opacity" values="0;1;0" dur="2s" repeatCount="indefinite"/>
      </circle>
      <circle cx="70" cy="15" r="0.5">
        <animate attributeName="opacity" values="1;0;1" dur="1.5s" repeatCount="indefinite"/>
      </circle>
      <circle cx="90" cy="45" r="0.5">
        <animate attributeName="opacity" values="0;1;0" dur="2.5s" repeatCount="indefinite"/>
      </circle>
      <circle cx="10" cy="85" r="0.5">
        <animate attributeName="opacity" values="1;0;1" dur="1.8s" repeatCount="indefinite"/>
      </circle>
    </g>
    
    <!-- Plus Signs -->
    <g stroke="#ffffff" stroke-width="1" fill="none">
      <g transform="translate(25, 85)">
        <line x1="-2" y1="0" x2="2" y2="0"/>
        <line x1="0" y1="-2" x2="0" y2="2"/>
        <animateTransform attributeName="transform" type="rotate" values="0 25 85; 360 25 85" dur="4s" repeatCount="indefinite"/>
      </g>
      <g transform="translate(90, 25)">
        <line x1="-2" y1="0" x2="2" y2="0"/>
        <line x1="0" y1="-2" x2="0" y2="2"/>
        <animateTransform attributeName="transform" type="rotate" values="360 90 25; 0 90 25" dur="3s" repeatCount="indefinite"/>
      </g>
    </g>
  </g>
  
  <!-- Main Studio Pulse -->
  <circle cx="50" cy="50" r="35" fill="none" stroke="url(#studioGradient1)" stroke-width="1" opacity="0.3">
    <animate attributeName="r" values="35;50;35" dur="5s" repeatCount="indefinite"/>
    <animate attributeName="opacity" values="0.3;0;0.3" dur="5s" repeatCount="indefinite"/>
  </circle>
</svg>